<svg width="175" height="24" viewBox="0 0 175 24" fill="none" xmlns="http://www.w3.org/2000/svg">
<path d="M52.4275 23.0097C48.612 24 45.6411 24 43.3984 24C37.1945 24 29.9712 20.8835 29.9712 12.1456C29.9712 3.40777 36.1751 0 44.6508 0C46.1945 0 49.4566 0.145638 51.7285 1.13593V6.23302C49.8935 5.09709 46.9227 4.68932 45.5246 4.68932C40.4275 4.68932 36.3498 6.81554 36.3498 12.3204C36.3498 16.835 39.612 19.6602 44.1265 19.6602C44.9712 19.6602 45.8159 19.3689 46.3984 19.2233V14.5631H42.7285V10.0485H52.3401V23.0388" fill="black"/>
<path d="M57.7866 0.407959H74.039V4.80601H63.874V9.61184H73.4856V13.9808H63.874V19.34H74.4759V23.7381H57.7866V0.407959Z" fill="black"/>
<path d="M85.34 13.8353H87.1749C89.3012 13.8353 91.8351 14.1265 91.8351 16.5149C91.8351 18.9032 89.4468 19.1945 87.1749 19.1945H85.34V13.8353ZM79.2817 23.7382H89.1847C93.2915 23.7382 98.2138 22.6022 98.2138 16.9518C98.2138 14.1265 96.6701 12.4372 93.408 11.8547V11.709C95.9419 10.8644 97.5148 9.17507 97.5148 6.2042C97.5148 2.24303 94.2526 0.262451 89.8837 0.262451H79.2817V23.7382ZM85.34 4.80613H87.1749C89.3012 4.80613 91.2817 4.95177 91.2817 7.07798C91.2817 9.05856 89.1555 9.61196 87.1749 9.61196H85.34V4.80613Z" fill="black"/>
<path d="M102.583 0.407959H118.981V4.80601H108.786V9.61184H118.398V13.9808H108.786V19.34H119.388V23.7381H102.583V0.407959Z" fill="black"/>
<path d="M130.282 4.80636H131.825C134.214 4.80636 136.485 5.24325 136.485 7.34034C136.485 10.0199 133.951 10.02 131.825 10.02H130.282V4.80636ZM123.903 23.7384H130.107V14.5636H131.388C133.66 14.5636 134.505 15.6996 135.641 19.6607L137.068 23.7675H143.418L141.146 17.5636C140.01 14.7384 139.864 12.9034 137.884 12.35C141 11.651 142.398 9.5248 142.398 6.4083C142.398 2.44713 139.136 0.466553 134.913 0.466553H123.757V23.7675H123.903V23.7384Z" fill="black"/>
<path d="M153.699 0.407959H147.495V23.7089H153.699V0.407959Z" fill="black"/>
<path d="M162.903 4.92252H157.107V0.407959H174.757V4.92252H168.99V23.7381H162.903V4.92252Z" fill="black"/>
<path d="M23.301 0.407959H0V23.7089H23.301V0.407959Z" fill="#0072BA"/>
</svg>
