<svg width="32" height="32" viewBox="0 0 32 32" fill="none" xmlns="http://www.w3.org/2000/svg">
<g clip-path="url(#clip0_1107_8329)">
<path d="M32 32H0V0H32V32Z" fill="#FDB022"/>
<path d="M2.5 12.7481V10.6464H11.0764V12.7481H7.99959V21.3536H5.58175V12.7481H2.5ZM21.0214 14.5257H18.5442C18.5111 14.2573 18.4434 14.0151 18.341 13.799C18.2386 13.5829 18.1032 13.3981 17.9348 13.2448C17.7663 13.0914 17.5664 12.9747 17.3353 12.8945C17.1073 12.8108 16.8547 12.769 16.5772 12.769C16.0851 12.769 15.6606 12.8962 15.3038 13.1507C14.9504 13.4051 14.6779 13.7728 14.4864 14.2538C14.2981 14.7348 14.204 15.3169 14.204 16C14.204 16.711 14.2997 17.307 14.4913 17.788C14.6862 18.2655 14.9587 18.6263 15.3088 18.8703C15.6623 19.1107 16.0801 19.231 16.5623 19.231C16.8332 19.231 17.0793 19.1944 17.3006 19.1212C17.5252 19.048 17.7217 18.9417 17.8901 18.8023C18.062 18.6594 18.2023 18.4868 18.3113 18.2847C18.4236 18.0791 18.5012 17.8473 18.5442 17.5894L21.0214 17.605C20.9785 18.0791 20.8481 18.5461 20.63 19.0062C20.4154 19.4663 20.1197 19.8863 19.7432 20.2662C19.3666 20.6426 18.9075 20.9423 18.3658 21.1654C17.8275 21.3885 17.2097 21.5 16.5128 21.5C15.5946 21.5 14.7721 21.2874 14.0454 20.8622C13.322 20.4335 12.7506 19.8096 12.3311 18.9905C11.9116 18.1714 11.7019 17.1746 11.7019 16C11.7019 14.8219 11.9149 13.8234 12.341 13.0043C12.7671 12.1852 13.3435 11.5631 14.0702 11.1378C14.7968 10.7126 15.6111 10.5 16.5128 10.5C17.1272 10.5 17.6953 10.5906 18.2172 10.7719C18.7391 10.9496 19.1982 11.211 19.5945 11.5561C19.9909 11.8977 20.313 12.3176 20.5607 12.8161C20.8084 13.3145 20.962 13.8844 21.0214 14.5257ZM22.4249 21.3536V10.6464H29.5V12.7481H24.8773V14.9439H29.1383V17.0509H24.8773V19.2519H29.5V21.3536H22.4249Z" fill="white"/>
</g>
<defs>
<clipPath id="clip0_1107_8329">
<path d="M0 2C0 0.895431 0.895431 0 2 0H30C31.1046 0 32 0.895431 32 2V30C32 31.1046 31.1046 32 30 32H2C0.895431 32 0 31.1046 0 30V2Z" fill="white"/>
</clipPath>
</defs>
</svg>
