<svg width="86" height="32" viewBox="0 0 86 32" fill="none" xmlns="http://www.w3.org/2000/svg">
<g clip-path="url(#clip0_698_4518)">
<path d="M4.81504 29.5043V24.4475H2.68189C2.5777 25.9633 2.30462 27.8449 1.82345 29.5043H4.81504ZM5.58225 23.4806C5.8424 23.4806 5.94659 23.572 5.94659 23.7811V29.5043H6.38884C6.64888 29.5043 6.75297 29.596 6.75297 29.7919V32.0003H5.98554C5.71246 32.0003 5.62139 31.9089 5.62139 31.6998V30.4584H1.1602V32.0003H0.392762C0.13254 32.0003 0.0286102 31.9089 0.0286102 31.6998V29.5043H0.678769C1.27726 27.6358 1.57639 25.5713 1.66743 23.4806H5.58225Z" fill="#94979C"/>
<path d="M9.02918 26.4728H12.814C12.879 26.3292 12.9181 26.1201 12.9181 25.9372C12.9181 24.9441 12.2807 24.3037 11.2142 24.3037C10.0565 24.3037 9.15913 25.1269 9.02918 26.4728ZM13.2173 29.23C13.3084 29.3477 13.3733 29.5699 13.3733 29.7397C13.3733 30.0927 12.5539 30.6152 11.3052 30.6152C9.32833 30.6152 7.85843 29.1125 7.85843 26.9695C7.85843 24.6957 9.44535 23.3238 11.2663 23.3238C12.9051 23.3238 14.0237 24.4083 14.0237 25.8849C14.0237 26.2637 13.9456 26.6428 13.8285 26.9041C13.6465 27.3222 13.4122 27.4399 12.9312 27.4399H9.02918C9.17225 28.8771 10.2128 29.6353 11.4872 29.6353C12.0987 29.6353 12.6841 29.5176 13.2173 29.23Z" fill="#94979C"/>
<path d="M18.5634 29.5043C19.604 29.5043 20.1112 29.1387 20.1112 28.4199C20.1112 27.7013 19.5129 27.3616 18.4074 27.3616H16.8596V28.3807C16.8596 29.2953 17.0549 29.5043 17.6011 29.5043H18.5634ZM16.8596 24.4475V26.4075H18.4206C19.3958 26.4075 19.7863 26.0026 19.7863 25.4275C19.7863 24.8396 19.3958 24.4475 18.4206 24.4475H16.8596ZM17.38 30.4584C16.3263 30.4584 15.7281 29.9619 15.7281 28.5505V23.4806H18.5505C20.0984 23.4806 20.9177 24.3429 20.9177 25.3753C20.9177 26.0418 20.5665 26.5514 19.9944 26.8127C20.7096 27.0609 21.2429 27.5836 21.2429 28.459C21.2429 29.6353 20.3324 30.4584 18.6545 30.4584H17.38Z" fill="#94979C"/>
<path d="M23.7275 26.4728H27.5126C27.5776 26.3292 27.6165 26.1201 27.6165 25.9372C27.6165 24.9441 26.9792 24.3037 25.9127 24.3037C24.7551 24.3037 23.8576 25.1269 23.7275 26.4728ZM27.9156 29.23C28.0067 29.3477 28.0716 29.5699 28.0716 29.7397C28.0716 30.0927 27.2523 30.6152 26.0038 30.6152C24.0267 30.6152 22.557 29.1125 22.557 26.9695C22.557 24.6957 24.1437 23.3238 25.9648 23.3238C27.6036 23.3238 28.722 24.4083 28.722 25.8849C28.722 26.2637 28.6441 26.6428 28.527 26.9041C28.345 27.3222 28.1108 27.4399 27.6297 27.4399H23.7275C23.8705 28.8771 24.9111 29.6353 26.1858 29.6353C26.7972 29.6353 27.3824 29.5176 27.9156 29.23Z" fill="#94979C"/>
<path d="M29.2944 30.0401C29.2944 29.8703 29.3594 29.6613 29.4504 29.5176C29.6714 29.622 29.9186 29.6745 30.1657 29.6745C30.647 29.6745 30.9592 29.3999 31.1153 28.2239C31.2973 26.9172 31.4143 25.2315 31.4143 23.4806H36.1877C36.4478 23.4806 36.5388 23.572 36.5388 23.7811V30.4584H35.7714C35.5115 30.4584 35.4074 30.3669 35.4074 30.1709V24.4475H32.5327C32.5069 25.532 32.416 27.0741 32.2467 28.3807C32.0386 30.0141 31.4665 30.6152 30.4649 30.6152C29.8795 30.6152 29.2944 30.3017 29.2944 30.0401Z" fill="#94979C"/>
<path d="M43.9662 27.0479C43.9662 25.2446 42.8607 24.3037 41.6639 24.3037C40.5195 24.3037 39.4919 25.1138 39.4919 26.8909C39.4919 28.6943 40.5976 29.6353 41.7942 29.6353C42.9387 29.6353 43.9662 28.825 43.9662 27.0479ZM45.1239 26.9695C45.1239 29.2823 43.563 30.6152 41.7291 30.6152C39.8952 30.6152 38.3342 29.2823 38.3342 26.9695C38.3342 24.6566 39.8952 23.3238 41.7291 23.3238C43.563 23.3238 45.1239 24.6566 45.1239 26.9695Z" fill="#94979C"/>
<path d="M52.6674 30.4584H51.9001C51.6269 30.4584 51.5359 30.38 51.5359 30.1709V24.4475H48.0501V30.4584H47.2827C47.0096 30.4584 46.9187 30.38 46.9187 30.1709V23.4806H52.3033C52.5634 23.4806 52.6674 23.572 52.6674 23.7811V30.4584Z" fill="#94979C"/>
<path d="M62.8 30.4581H61.9937C61.7335 30.4581 61.6554 30.3797 61.6294 30.1837L60.9921 25.0483L59.3012 28.0669C59.2233 28.1976 59.1063 28.2496 58.924 28.2496H58.1568L56.3617 25.0483L55.6855 30.4581H54.9181C54.645 30.4581 54.5537 30.3535 54.5798 30.1706L55.4121 23.6893C55.6855 23.5196 56.0625 23.4019 56.2706 23.4019C56.4399 23.4019 56.5438 23.4541 56.6348 23.6241L58.677 27.2305L60.7969 23.4803H61.5775C61.8375 23.4803 61.9287 23.5716 61.9545 23.7807L62.8 30.4581Z" fill="#94979C"/>
<path d="M65.3893 26.4728H69.1739C69.2389 26.3292 69.2778 26.1201 69.2778 25.9372C69.2778 24.9441 68.6407 24.3037 67.5737 24.3037C66.4162 24.3037 65.5192 25.1269 65.3893 26.4728ZM69.5772 29.23C69.6683 29.3477 69.7332 29.5699 69.7332 29.7397C69.7332 30.0927 68.9134 30.6152 67.6648 30.6152C65.6881 30.6152 64.2184 29.1125 64.2184 26.9695C64.2184 24.6957 65.8053 23.3238 67.6259 23.3238C69.265 23.3238 70.3837 24.4083 70.3837 25.8849C70.3837 26.2637 70.3053 26.6428 70.1881 26.9041C70.0065 27.3222 69.7721 27.4399 69.2911 27.4399H65.3893C65.532 28.8771 66.5729 29.6353 67.847 29.6353C68.4585 29.6353 69.044 29.5176 69.5772 29.23Z" fill="#94979C"/>
<path d="M77.0948 30.4581C76.8215 30.4581 76.7311 30.3797 76.7311 30.1706V27.3351H73.2446V30.4581H72.4776C72.2043 30.4581 72.1132 30.3797 72.1132 30.1706V23.5196C72.3737 23.4411 72.6464 23.4019 72.8936 23.4019C73.1407 23.4019 73.2446 23.4934 73.2446 23.6762V26.3812H76.7311V23.4803H77.4981C77.758 23.4803 77.8625 23.5716 77.8625 23.7807V30.4581H77.0948Z" fill="#94979C"/>
<path d="M82.181 30.4584C81.9077 30.4584 81.8166 30.38 81.8166 30.1709V24.4475H79.671C79.4888 24.4475 79.3977 24.3429 79.3977 24.1078C79.3977 23.9118 79.4239 23.6765 79.4755 23.4806H85.0686C85.2636 23.4806 85.3547 23.5851 85.3547 23.8595V24.4475H82.9486V30.4584H82.181Z" fill="#94979C"/>
<path d="M57.7966 10.3525C57.7966 13.299 55.7774 14.793 51.7954 14.793C47.8133 14.793 45.7945 13.299 45.7945 10.3525V7.24717C45.7945 4.30063 47.8134 2.80678 51.7956 2.80678C55.7774 2.80678 57.7966 4.30073 57.7966 7.24717V10.3525ZM51.7956 0C42.9421 0 41.8068 3.69668 41.8068 6.91718V10.6854C41.8068 16.8165 47.1449 17.6028 51.7954 17.6028C60.6489 17.6029 61.7842 13.9059 61.7842 10.6855V6.91725C61.7842 0.786246 56.4461 0 51.7956 0Z" fill="#94979C"/>
<path d="M81.3955 10.3525C81.3955 13.2991 79.3767 14.793 75.3946 14.793C71.4125 14.793 69.3937 13.299 69.3937 10.3525V7.24717C69.3937 4.30073 71.4125 2.80678 75.3946 2.80678C79.3767 2.80678 81.3955 4.30073 81.3955 7.24717V10.3525ZM75.3946 0C66.5411 0 65.4059 3.69668 65.4059 6.91725V10.6855C65.4059 16.8166 70.7443 17.6029 75.3946 17.6029C84.2482 17.6029 85.3834 13.9061 85.3834 10.6855V6.91725C85.3834 0.786246 80.045 0 75.3946 0Z" fill="#94979C"/>
<path d="M33.8529 5.98009L33.8469 17.2033H37.667C37.667 17.2033 37.667 1.28844 37.667 0.363129C36.1354 0.363129 33.8529 1.84228 33.8529 5.98009Z" fill="#94979C"/>
<path d="M10.7596 11.4099L17.6778 4.61502C18.0533 4.23976 18.5519 4.03306 19.0817 4.03306H19.2361L19.2363 11.4152L10.7596 11.4099ZM14.558 2.57965L1.89573 15.2371L0 17.1885H2.89986C4.30868 17.1885 5.74571 16.5423 6.74463 15.5437L7.5208 14.5584H13.4951C16.163 14.5584 18.7281 13.3569 19.2363 11.703V17.1885H22.8731V0.379379H19.8643C17.8619 0.379379 15.9775 1.16082 14.558 2.57965Z" fill="#94979C"/>
<path d="M25.5916 10.7214H28.5679C30.6784 10.7214 31.1286 9.00161 31.1286 6.88129H28.5679C26.4623 6.88129 25.5916 8.6009 25.5916 10.7214Z" fill="#94979C"/>
</g>
<defs>
<clipPath id="clip0_698_4518">
<rect width="86" height="32" fill="white"/>
</clipPath>
</defs>
</svg>
