<svg width="116" height="38" viewBox="0 0 116 38" fill="none" xmlns="http://www.w3.org/2000/svg">
<path d="M35.1152 29.3594C35.507 29.3594 35.852 29.3793 36.1494 29.417C36.4487 29.4614 36.6985 29.5261 36.8984 29.6094C37.0897 29.6914 37.259 29.7937 37.4053 29.914C37.5503 30.0307 37.6747 30.1706 37.7734 30.331L37.7969 29.4707H41.7119V35.5273C41.7119 35.947 41.6101 36.3149 41.4102 36.626C41.2127 36.9332 40.9168 37.185 40.5244 37.3818C40.1295 37.5805 39.6103 37.7278 38.9697 37.8223C38.3176 37.9271 37.5392 37.9804 36.6367 37.9805C36.4004 37.9805 36.0549 38.0364 35.6211 37.958C34.9633 37.8389 32.0749 37.9124 31.6738 37.4306L32.3311 36.0488C32.4415 36.0704 32.5196 36.0869 32.5615 36.0937C32.6454 36.1178 32.7382 36.1353 32.8369 36.1514C32.9411 36.1742 33.0489 36.1947 33.1592 36.207C33.2758 36.2323 33.399 36.2525 33.5273 36.2637C33.7501 36.2951 33.9805 36.3183 34.2168 36.3301C34.9339 36.3668 35.6525 36.3553 36.3682 36.2969C36.7465 36.2617 37.0369 36.1983 37.2344 36.1045C37.409 36.0294 37.5573 35.9036 37.6592 35.7431C37.7511 35.5938 37.7969 35.3989 37.7969 35.165V33.8887C37.7278 34.0539 37.6115 34.1951 37.4512 34.3086C37.295 34.4197 37.0782 34.5039 36.8066 34.5693C36.555 34.6298 36.2866 34.684 36.001 34.7148C35.7105 34.7461 35.4181 34.7617 35.126 34.7617C34.6637 34.7667 34.2027 34.7057 33.7578 34.5801C33.353 34.4597 33.011 34.2794 32.7314 34.0381C31.845 33.2753 31.731 32.0649 32.1006 30.9863C32.229 30.5958 32.4336 30.2826 32.71 30.0488C32.9759 29.8224 33.3089 29.6473 33.71 29.5264C34.1043 29.4153 34.5741 29.3594 35.1152 29.3594ZM31.1855 36.4267L31.1621 37.4306L0.03125 37.4121L0 36.417L31.1855 36.4267ZM86.751 37.4306H42.2676L42.9131 36.4267H86.7754L86.751 37.4306ZM90.2783 -1.52588e-05C90.6579 0.114155 91.0378 0.228052 91.418 0.379868C91.8731 0.759179 91.8729 0.759553 92.2529 1.36717C92.2912 1.51899 92.3294 1.67123 92.4053 1.86131L92.291 2.54491C91.9117 3.19008 91.9117 3.19021 91.5322 3.5703C89.4433 5.08902 89.4435 5.08964 88.1143 6.22948C87.9249 6.53291 87.7345 6.83608 87.5439 7.17772V8.31737C87.6587 8.54505 87.773 8.77267 87.9248 9.00096C88.5321 9.3805 88.5323 9.38093 89.0254 9.4951C89.6714 9.49509 90.3544 9.45657 91.0381 9.41893C91.7601 9.19121 92.4811 8.92515 93.2031 8.65916H93.9619C94.3044 8.88688 94.6453 9.15295 95.0254 9.41893C95.4049 9.49484 95.4051 9.49465 103.267 9.64647C103.305 12.0385 103.228 13.9388 103.114 14.5078C103.114 14.6601 103.115 14.8122 103.153 14.9639C103.419 14.5078 103.418 14.5074 103.608 13.8242C106.418 13.7859 106.418 13.7864 107.633 13.8623C108.773 14.0523 108.773 14.0521 110.025 14.4316C110.595 14.6593 111.164 14.9255 111.734 15.1914C112.077 15.4191 112.418 15.6848 112.761 15.9502C113.254 16.5574 113.748 17.1651 114.279 17.8105C114.659 18.5702 114.659 18.5706 115.001 19.5195C115.115 20.0138 115.229 20.5087 115.381 21.04C115.381 21.8367 115.419 22.6347 115.457 23.4326C115.266 24.9512 115.266 24.9513 114.507 28.6348V31.2168C114.279 31.3316 114.279 31.3318 114.014 31.293C113.899 31.1035 113.899 31.1033 114.09 25.7871C114.014 25.7871 113.937 25.7485 113.823 25.7109C113.557 35.8465 113.556 35.8503 113.443 36.0019C112.457 36.0032 111.431 36.0039 110.405 36.0039C110.368 35.9662 110.292 35.9275 110.216 35.8515L110.899 34.1426C111.089 33.1182 111.089 33.1178 111.089 32.0537C110.709 31.0292 110.709 31.0285 110.329 30.5342C109.988 30.3066 109.647 30.0787 109.267 29.8135C107.52 29.3191 105.734 28.8265 103.949 28.2939C102.24 28.218 102.24 28.2179 101.937 28.332C101.861 28.4838 101.785 28.6356 101.709 28.8262C101.709 29.3192 101.748 29.8135 101.785 30.3447C102.285 32.2165 102.778 34.0901 103.266 35.9648L98.8994 35.8506C99.013 35.3192 99.1646 34.7872 99.3164 34.2558V32.7373C98.2531 29.5468 97.1904 26.3574 96.0889 23.1299C96.0889 23.0151 96.1274 22.9019 96.165 22.749C95.2925 22.7114 94.4182 22.6355 93.5068 22.5596C93.5068 21.2304 93.4689 19.9002 93.4307 18.5723C92.6717 17.6227 92.6717 17.622 92.4053 17.4326C91.4179 17.2802 91.4176 17.28 88.9492 17.2041C88.9116 17.1659 88.8736 17.1282 88.8359 17.0517C89.2154 16.4447 89.7077 16.0641 89.8984 15.7988C89.8984 15.6847 89.8989 15.5711 89.9365 15.457C89.8141 15.3804 89.6999 15.2914 89.5957 15.1914C88.8366 15.1531 88.0379 15.0769 87.2412 15.001C86.6329 14.8868 86.0251 14.7729 85.418 14.6211C83.8992 13.8614 83.8988 13.861 83.4434 13.4814C82.6845 12.4943 82.6842 12.494 82.1523 11.5449C82.1523 11.4685 82.1529 11.3927 82.1904 11.2793C82.457 11.5829 82.7217 11.8867 82.9883 12.2285C83.3295 12.4568 83.7091 12.6844 84.0898 12.9121C84.507 13.0263 84.9625 13.1402 85.418 13.292H87.0508C87.0508 13.2537 87.0887 13.2155 87.127 13.1396C86.368 12.3424 86.3678 12.3424 85.6084 11.2412C85.4566 10.8993 85.265 10.5192 85.0762 10.1396C85.0379 9.83556 84.9616 9.5321 84.8857 9.19041C84.924 8.73449 84.9621 8.24062 85.001 7.74706C85.1145 7.44357 85.2282 7.13953 85.3799 6.79784C85.6076 6.41768 85.8737 6.03835 86.1396 5.65819C86.4049 5.43052 86.7082 5.16432 87.0117 4.89842C90.543 2.6203 90.544 2.6202 90.8857 2.24022V1.59471C90.7722 1.48054 90.6206 1.36611 90.4688 1.25194H89.9746C89.7469 1.36609 89.5187 1.51812 89.291 1.66991C89.2529 1.40408 89.3672 1.21463 89.3672 0.911118C89.2524 0.721048 89.2521 0.721115 89.0244 0.569321C88.7968 0.531688 88.5315 0.45575 88.2656 0.379868C88.2656 0.0759268 88.2654 0.075662 88.3799 -1.52588e-05H90.2783ZM47.9248 28.916C48.6974 28.916 49.3885 28.9703 49.9951 29.0752C50.6024 29.185 51.1166 29.3475 51.5381 29.5635C51.9638 29.785 52.2873 30.1059 52.5039 30.5254C52.7193 30.9413 52.8281 31.4626 52.8281 32.084C52.8281 32.6986 52.7193 33.2159 52.5039 33.6318C52.2932 34.0448 51.9542 34.3786 51.5381 34.583C51.0957 34.807 50.5766 34.9708 49.9844 35.0732C49.3777 35.1769 48.6891 35.2314 47.9238 35.2314C47.1432 35.2314 46.4523 35.1769 45.8525 35.0732C45.2516 34.9708 44.7326 34.807 44.2988 34.583C43.8811 34.3798 43.541 34.0458 43.3301 33.6318C43.1184 33.2146 43.0107 32.6974 43.0107 32.084C43.0108 31.4718 43.1188 30.9548 43.3311 30.5351C43.5443 30.1198 43.8833 29.7821 44.2998 29.5713C44.7305 29.3578 45.2495 29.1948 45.8535 29.0849C46.4534 28.9726 47.1441 28.916 47.9248 28.916ZM69.1816 32.5224C69.1816 32.6348 69.2028 32.739 69.2441 32.8291C69.2768 32.9216 69.33 32.9998 69.3984 33.0615C69.4731 33.1337 69.5662 33.1865 69.6748 33.2217C69.7926 33.2556 69.9218 33.2734 70.0605 33.2734C70.2023 33.2734 70.3309 33.2555 70.4443 33.2217C70.5567 33.1853 70.6545 33.1325 70.7354 33.0615C70.797 32.9955 70.8499 32.9172 70.8906 32.8291C70.9238 32.7305 70.9396 32.6264 70.9375 32.5224V28.6406H75.0283V32.6181C75.0283 33.0469 74.9438 33.4248 74.7754 33.75C74.5938 34.089 74.3295 34.3766 74.0068 34.5859C73.6681 34.8019 73.1693 34.9629 72.5146 35.0703C71.8519 35.1764 71.0323 35.2304 70.0605 35.2305C69.0966 35.2305 68.2844 35.1764 67.6309 35.0703C66.9719 34.9629 66.4725 34.8013 66.1387 34.5859C65.7927 34.3595 65.5349 34.0787 65.3701 33.75C65.2029 33.4248 65.1182 33.0469 65.1182 32.6181V28.6406H69.1816V32.5224ZM57.4922 30.2793C57.7542 29.8596 58.1458 29.5363 58.6074 29.3584C58.8276 29.2714 59.0715 29.2043 59.333 29.1611C59.6108 29.1187 59.8919 29.0985 60.1729 29.1006C60.7813 29.1006 61.3088 29.1782 61.75 29.3349C62.1874 29.4892 62.5476 29.7297 62.832 30.0449C63.1235 30.3746 63.3395 30.7644 63.4639 31.1865C63.8637 32.4978 63.6398 33.233 62.7637 34.166C62.4705 34.477 62.0919 34.7051 61.6328 34.8428C61.1762 34.9896 60.6313 35.0644 60 35.0644C59.7243 35.0644 59.4577 35.0437 59.2061 35.0049C58.9562 34.9706 58.7088 34.916 58.4678 34.8418C58.2527 34.7779 58.0526 34.6708 57.8809 34.5264C57.714 34.3872 57.581 34.2115 57.4912 34.0137L57.4688 34.8408H53.6699V26.1328H57.4678L57.4922 30.2793ZM30.8438 29.1191C30.9123 29.1216 30.967 29.1264 31.0059 29.1289C31.0367 29.135 31.0832 29.1387 31.1436 29.1387L31.293 29.1592H31.3633C31.3842 29.1653 31.4033 29.1689 31.4199 29.1689H31.4658C31.4732 29.1751 31.4828 29.1797 31.4902 29.1797L31.5107 31.4014H30.3828C30.0776 31.4014 29.8167 31.4192 29.5996 31.458C29.3769 31.4962 29.2069 31.5552 29.0928 31.623C28.9696 31.6932 28.8721 31.8012 28.8145 31.9306C28.754 32.0658 28.7258 32.2342 28.7246 32.4316L28.7041 35.0303H24.792V29.206H28.6416C28.6399 29.2272 28.5478 30.2715 28.6475 30.0654C28.7567 29.8378 28.8794 29.6529 29.0127 29.5166C29.146 29.3777 29.3316 29.2743 29.5674 29.207C29.8011 29.1423 30.0817 29.1094 30.4072 29.1094H30.6729C30.719 29.1118 30.7768 29.1167 30.8438 29.1191ZM79.6455 35.0293H75.7314V26.6445H79.6455V35.0293ZM84.7324 35.0293H80.8193V26.6689H84.7324V35.0293ZM16.1279 28.8974C16.4579 28.8975 16.7706 28.9155 17.0654 28.9482C17.3492 28.9859 17.6128 29.0393 17.8516 29.1084C18.104 29.1868 18.3294 29.2858 18.5244 29.4043C18.7355 29.5357 18.9185 29.6899 19.0703 29.8633L19.1094 28.9951H23.2842V34.7558H19.1113V34.7549L19.1094 34.0781C18.9872 34.2447 18.8339 34.3845 18.6494 34.498C18.4452 34.6181 18.2234 34.7061 17.9922 34.7578C17.4426 34.8782 16.881 34.9387 16.3184 34.9385C15.6163 34.9384 15.011 34.8769 14.5039 34.7578C13.988 34.6362 13.5666 34.4512 13.2451 34.2031C12.9536 33.9771 12.7215 33.6847 12.5654 33.3515V31.7685C12.4725 31.7847 12.3792 31.7983 12.2861 31.8135C12.2959 31.3666 12.3703 30.967 12.5117 30.6162C12.6584 30.2467 12.8978 29.9208 13.207 29.6709C13.5186 29.413 13.9211 29.2198 14.4121 29.0908C14.8941 28.9631 15.467 28.8974 16.1279 28.8974ZM8.18555 26.5332C8.54012 26.5332 8.90083 26.5419 9.26465 26.5586C9.59172 26.5697 9.94572 26.5948 10.3203 26.6318C10.648 26.6596 11.0042 26.7013 11.3887 26.7519C11.7571 26.8013 12.1585 26.8596 12.5898 26.9287L12.5166 29.2744C12.2894 29.2129 12.0582 29.1658 11.8252 29.1328C11.572 29.0951 11.3176 29.0659 11.0625 29.0449C10.7891 29.0245 10.5116 29.0031 10.2363 28.9883C9.96246 28.9743 9.68829 28.9673 9.41406 28.9678C8.27856 28.9678 7.19168 29.2065 7.15527 30.4297C7.12512 31.465 7.94677 32.1288 9.04688 32.1289C9.53193 32.1289 10.0705 32.0968 10.6611 32.0332C11.205 31.9766 11.7466 31.9016 12.2861 31.8135C12.2854 31.846 12.2832 31.879 12.2832 31.9121C12.2832 32.4279 12.3636 32.879 12.5234 33.2598C12.5364 33.2909 12.5512 33.3211 12.5654 33.3515V34.3857C12.313 34.4499 12.0086 34.5055 11.6562 34.5517C11.3107 34.5937 10.9371 34.6361 10.5391 34.6719C10.1319 34.7046 9.73115 34.7354 9.33691 34.7607C8.94532 34.7811 8.5605 34.792 8.18555 34.792C7.28146 34.792 6.47932 34.7122 5.7832 34.5517C5.09038 34.3913 4.49792 34.1462 4.01172 33.8174C3.5307 33.4977 3.1518 33.0454 2.92188 32.5156C2.67999 31.9757 2.55862 31.3208 2.55859 30.5556C2.55859 29.8503 2.68797 29.239 2.94531 28.7256C3.19879 28.2127 3.59439 27.7836 4.08496 27.4892C4.60207 27.1696 5.20604 26.9256 5.8916 26.7627C6.57352 26.6096 7.34132 26.5332 8.18555 26.5332ZM58.9717 30.8506C58.7656 30.8506 58.5844 30.8774 58.4326 30.9267C58.281 30.9823 58.1494 31.0605 58.0391 31.1592C57.9328 31.2739 57.8537 31.4117 57.8086 31.5615C57.7519 31.7569 57.7261 31.9606 57.7305 32.164C57.7305 32.3854 57.7562 32.5689 57.8086 32.7139C57.8592 32.8642 57.9374 32.9904 58.0391 33.0928C58.1519 33.2025 58.2834 33.2822 58.4326 33.3291C58.5819 33.376 58.7631 33.4004 58.9717 33.4004C59.1901 33.4004 59.3806 33.3762 59.5361 33.3281C59.6889 33.2813 59.8152 33.2104 59.915 33.1162C60.0276 33.0076 60.1116 32.872 60.1582 32.7226C60.2157 32.5422 60.2423 32.3534 60.2383 32.164C60.2419 31.964 60.2153 31.7641 60.1582 31.5723C60.1116 31.4203 60.0276 31.2821 59.915 31.1699C59.804 31.0625 59.6718 30.9791 59.5264 30.9267C59.3463 30.8746 59.1591 30.8487 58.9717 30.8506ZM45.9053 32.0068C45.9053 32.1512 45.9317 32.2803 45.9854 32.3926C46.0304 32.5085 46.1034 32.6033 46.2051 32.6767C46.2964 32.7526 46.4239 32.8081 46.585 32.8408C46.7435 32.8791 46.939 32.8994 47.1709 32.8994C47.3937 32.8994 47.5864 32.8797 47.748 32.8408C47.8889 32.8169 48.0221 32.7608 48.1377 32.6767C48.2216 32.6033 48.2866 32.5086 48.3311 32.3926C48.3773 32.2852 48.4014 32.1558 48.4014 32.0078C48.4013 31.8537 48.3773 31.7235 48.3311 31.6162C48.2888 31.5097 48.2222 31.4144 48.1377 31.3369C48.0192 31.2582 47.8871 31.2025 47.748 31.1728C47.5586 31.1315 47.3648 31.1115 47.1709 31.1142C46.9408 31.1143 46.7454 31.1352 46.585 31.1728C46.4484 31.2004 46.3187 31.2562 46.2051 31.3369C46.1076 31.408 46.0313 31.5046 45.9854 31.6162C45.9318 31.7269 45.9054 31.8568 45.9053 32.0068ZM17.873 30.9931C17.6671 30.9932 17.4863 31.0124 17.334 31.0488C17.1946 31.0835 17.0618 31.1409 16.9404 31.2178C16.84 31.2942 16.7604 31.395 16.71 31.5107C16.6539 31.6499 16.6269 31.7992 16.6309 31.9492C16.6309 32.1097 16.6575 32.2441 16.71 32.3496C16.7612 32.4594 16.8386 32.5503 16.9404 32.625C17.0527 32.7046 17.184 32.7626 17.334 32.7959C17.4833 32.8298 17.6639 32.8476 17.873 32.8476C18.0915 32.8476 18.282 32.8301 18.4375 32.7949C18.5761 32.7685 18.7084 32.7163 18.8281 32.6416C18.9361 32.5657 19.0187 32.4705 19.0693 32.3545C19.1155 32.2448 19.1396 32.1093 19.1396 31.9492C19.1396 31.7826 19.1156 31.6379 19.0693 31.5176C19.0169 31.4 18.9332 31.2989 18.8281 31.2246C18.7045 31.1445 18.5685 31.0851 18.4258 31.0488C18.2441 31.0107 18.0587 30.9915 17.873 30.9931ZM36.7266 31.0908C36.5144 31.0908 36.3302 31.1115 36.1748 31.1504C36.0227 31.1886 35.9032 31.244 35.8193 31.3154C35.7302 31.389 35.6622 31.4853 35.6221 31.5937C35.5754 31.7137 35.5524 31.842 35.5547 31.9707L35.5557 31.9697C35.5557 32.1191 35.577 32.2481 35.6221 32.3555C35.6567 32.4565 35.7208 32.5448 35.8066 32.6084C35.8905 32.6818 36.0117 32.7349 36.1641 32.7676C36.3208 32.8015 36.51 32.8193 36.7266 32.8193C36.9479 32.8193 37.1402 32.8015 37.3018 32.7676C37.4541 32.7349 37.5786 32.6834 37.6699 32.6162C37.7613 32.5545 37.836 32.4665 37.8896 32.3555C37.9396 32.2336 37.9636 32.1023 37.96 31.9707C37.9599 31.8142 37.9358 31.6794 37.8896 31.5703C37.8375 31.4625 37.7579 31.3695 37.6592 31.3017C37.5432 31.2267 37.4149 31.1725 37.2803 31.1416C37.0982 31.1054 36.9121 31.0883 36.7266 31.0908ZM12.8682 16.3252L8.05078 16.3281C7.89926 16.4796 7.89941 16.4804 7.89941 16.8603C8.88666 17.3045 13.4062 16.911 13.4062 21.6064C12.8687 23.8775 12.2129 24.3998 10.0938 25.1064L3.13965 25.1269L3.15234 21.0371L7.45215 21.0488C7.56608 20.8969 7.51938 20.5814 7.40527 20.4297C4.58042 19.8644 3.02496 19.2216 2.58301 16.4043C3.0008 13.6179 4.74517 13.0254 7.48145 13.0254H12.8301L12.8682 16.3252ZM23.5371 16.4531H21.1309C20.4846 16.4551 19.8652 16.7129 19.4082 17.1699C18.9513 17.6269 18.6934 18.2464 18.6914 18.8926C18.6936 19.5385 18.9514 20.1575 19.4082 20.6142C19.8651 21.0711 20.4847 21.3281 21.1309 21.3301H23.5371L23.54 25.1064H19.6299C16.3202 25.1064 13.6123 22.3986 13.6123 19.0889V19.042C13.6124 15.7329 16.3203 13.0254 19.6299 13.0254H23.5371V16.4531ZM29.3184 17.0039H32.3271V13.0254H37.2891V25.1064H32.3271L32.3564 20.8467L29.3184 20.8594V25.1064L24.5928 25.1025L24.5918 13.0254H29.3184V17.0039ZM56.0947 25.1064H51.7236L50.8877 19.0615L48.4951 25.1064H45.6895L43.4443 19.0615L42.5713 25.1064L38.124 25.0615L40.1787 13.0254L45.002 13.0234L47.0527 19.0615L49.1074 13.0254L53.6221 13.0234L56.0947 25.1064ZM61.5088 25.1064H56.7686L56.7734 13.0254H61.5088V25.1064ZM81.8418 13.0254C82.2508 13.7758 84.2724 14.8161 84.5723 14.8457L80.0898 21.7197H85.0273L85.0225 25.1055L72.0566 25.1064L77.7529 17.0039H70.2344V25.1064H65.3516V17.0039H62.584L62.582 13.0254H81.8418Z" fill="#94979C"/>
</svg>
